<svg clip-rule="evenodd" fill-rule="evenodd" height="2500" stroke-linejoin="round" stroke-miterlimit="2" viewBox="-.246 -1.859 2520.772 2523.167" width="2496" xmlns="http://www.w3.org/2000/svg"><path d="m80.428.176c2435.578 0 2436.223-.166 2437.74 1.413 2.358 2.454 2.348 2514.274 0 2516.53-1.642 1.578-2.25 1.413-2415.694 1.413-97.205 0-102.72 1.776-102.466-7.782.499-18.813.078-2482.586.218-2503.847.064-9.762 5.376-7.727 80.202-7.727z" fill="#a7f076"/><path d="m677.371 587.443c.039-11.278-.265-11.083.077-22.192.242-7.831 14.394-10.13 52.007-21.143 521.918-152.818 1107.302-121.625 1204.844 147.679 130.398 360.021-517.802 475.353-800.011 694.08-201.573 156.23-129.202 328.78 10.498 351.955 353.55 58.652 647.644-609.21 664.052-643.662 2.341-4.916 3.894-5.288 101.421-5.033 11.412.03 8.501 9.748 8.501 55.77 0 895.686.069 895.81-.575 896.934-1.858 3.239-3.12 2.853-326.014 2.853-134.434 0-139.172 1.002-138.12-5.29 16.123-96.464 187.354-376.145 218.529-429.257 92.155-157 151.18-284.97 152.855-295.122 1.432-8.676-36.425-17.871-38.47-17.223-12.886 4.082-168.461 402.082-453.213 631.116-334.362 268.936-761.89 152.476-795.199-185.765-64.695-656.947 1094.021-649.144 1269.198-886.909 103.024-139.833-117.162-230.44-477.101-146.405-386.811 90.308-643.911 300.767-651.808 299.616-1.625-.237-1.478-1.161-1.472-422.003z" fill="#201d1b"/></svg>